<mxfile host="app.diagrams.net" agent="Mozilla/5.0 (Windows NT 10.0; Win64; x64) AppleWebKit/537.36 (KHTML, like Gecko) Chrome/131.0.0.0 Safari/537.36" version="24.8.4">
  <diagram id="R2lEEEUBdFMjLlhIrx00" name="Page-1">
    <mxGraphModel dx="1290" dy="562" grid="1" gridSize="10" guides="1" tooltips="1" connect="1" arrows="1" fold="1" page="1" pageScale="1" pageWidth="850" pageHeight="1100" math="0" shadow="0" extFonts="Permanent Marker^https://fonts.googleapis.com/css?family=Permanent+Marker">
      <root>
        <mxCell id="0" />
        <mxCell id="1" parent="0" />
        <mxCell id="PeHTUBSz9kUBFjEfwH5B-1" value="" style="rounded=0;whiteSpace=wrap;html=1;" vertex="1" parent="1">
          <mxGeometry x="400" y="120" width="990" height="550" as="geometry" />
        </mxCell>
        <mxCell id="PeHTUBSz9kUBFjEfwH5B-2" value="" style="rounded=0;whiteSpace=wrap;html=1;" vertex="1" parent="1">
          <mxGeometry x="400" y="120" width="990" height="60" as="geometry" />
        </mxCell>
        <mxCell id="PeHTUBSz9kUBFjEfwH5B-3" value="logo" style="rounded=0;whiteSpace=wrap;html=1;" vertex="1" parent="1">
          <mxGeometry x="480" y="130" width="110" height="40" as="geometry" />
        </mxCell>
        <mxCell id="PeHTUBSz9kUBFjEfwH5B-6" value="inlog / account" style="rounded=0;whiteSpace=wrap;html=1;" vertex="1" parent="1">
          <mxGeometry x="1210" y="130" width="95" height="40" as="geometry" />
        </mxCell>
        <mxCell id="PeHTUBSz9kUBFjEfwH5B-7" value="searchbar" style="rounded=0;whiteSpace=wrap;html=1;" vertex="1" parent="1">
          <mxGeometry x="610" y="130" width="467.5" height="40" as="geometry" />
        </mxCell>
        <mxCell id="PeHTUBSz9kUBFjEfwH5B-8" value="watchlist" style="rounded=0;whiteSpace=wrap;html=1;" vertex="1" parent="1">
          <mxGeometry x="1100" y="130" width="95" height="40" as="geometry" />
        </mxCell>
        <mxCell id="PeHTUBSz9kUBFjEfwH5B-10" value="" style="rounded=0;whiteSpace=wrap;html=1;" vertex="1" parent="1">
          <mxGeometry x="480" y="190" width="560" height="390" as="geometry" />
        </mxCell>
        <mxCell id="PeHTUBSz9kUBFjEfwH5B-13" value="" style="shape=link;html=1;rounded=0;entryX=0;entryY=0;entryDx=0;entryDy=0;exitX=1;exitY=1;exitDx=0;exitDy=0;" edge="1" parent="1" source="PeHTUBSz9kUBFjEfwH5B-10" target="PeHTUBSz9kUBFjEfwH5B-10">
          <mxGeometry width="100" relative="1" as="geometry">
            <mxPoint x="830" y="320" as="sourcePoint" />
            <mxPoint x="930" y="320" as="targetPoint" />
            <Array as="points" />
          </mxGeometry>
        </mxCell>
        <mxCell id="PeHTUBSz9kUBFjEfwH5B-15" value="" style="shape=link;html=1;rounded=0;entryX=0;entryY=1;entryDx=0;entryDy=0;exitX=1;exitY=0;exitDx=0;exitDy=0;" edge="1" parent="1" source="PeHTUBSz9kUBFjEfwH5B-10" target="PeHTUBSz9kUBFjEfwH5B-10">
          <mxGeometry width="100" relative="1" as="geometry">
            <mxPoint x="1040" y="730" as="sourcePoint" />
            <mxPoint x="480" y="460" as="targetPoint" />
            <Array as="points" />
          </mxGeometry>
        </mxCell>
        <mxCell id="PeHTUBSz9kUBFjEfwH5B-17" value="up next" style="rounded=0;whiteSpace=wrap;html=1;" vertex="1" parent="1">
          <mxGeometry x="1060" y="190" width="60" height="30" as="geometry" />
        </mxCell>
        <mxCell id="PeHTUBSz9kUBFjEfwH5B-19" value="" style="rounded=0;whiteSpace=wrap;html=1;" vertex="1" parent="1">
          <mxGeometry x="1060" y="230" width="240" height="100" as="geometry" />
        </mxCell>
        <mxCell id="PeHTUBSz9kUBFjEfwH5B-20" value="" style="rounded=0;whiteSpace=wrap;html=1;" vertex="1" parent="1">
          <mxGeometry x="1060" y="335" width="240" height="100" as="geometry" />
        </mxCell>
        <mxCell id="PeHTUBSz9kUBFjEfwH5B-21" value="" style="rounded=0;whiteSpace=wrap;html=1;" vertex="1" parent="1">
          <mxGeometry x="1060" y="440" width="240" height="100" as="geometry" />
        </mxCell>
        <mxCell id="PeHTUBSz9kUBFjEfwH5B-22" value="browse trailers" style="rounded=0;whiteSpace=wrap;html=1;" vertex="1" parent="1">
          <mxGeometry x="1060" y="560" width="100" height="30" as="geometry" />
        </mxCell>
        <mxCell id="PeHTUBSz9kUBFjEfwH5B-23" value="" style="shape=link;html=1;rounded=0;entryX=1;entryY=0;entryDx=0;entryDy=0;" edge="1" parent="1" target="PeHTUBSz9kUBFjEfwH5B-19">
          <mxGeometry width="100" relative="1" as="geometry">
            <mxPoint x="1060" y="330" as="sourcePoint" />
            <mxPoint x="1000" y="400" as="targetPoint" />
          </mxGeometry>
        </mxCell>
        <mxCell id="PeHTUBSz9kUBFjEfwH5B-24" value="" style="shape=link;html=1;rounded=0;exitX=0;exitY=0;exitDx=0;exitDy=0;entryX=1;entryY=1;entryDx=0;entryDy=0;" edge="1" parent="1" source="PeHTUBSz9kUBFjEfwH5B-19" target="PeHTUBSz9kUBFjEfwH5B-19">
          <mxGeometry width="100" relative="1" as="geometry">
            <mxPoint x="900" y="400" as="sourcePoint" />
            <mxPoint x="1000" y="400" as="targetPoint" />
          </mxGeometry>
        </mxCell>
        <mxCell id="PeHTUBSz9kUBFjEfwH5B-25" value="" style="shape=link;html=1;rounded=0;entryX=0;entryY=0;entryDx=0;entryDy=0;exitX=1;exitY=1;exitDx=0;exitDy=0;" edge="1" parent="1" source="PeHTUBSz9kUBFjEfwH5B-20" target="PeHTUBSz9kUBFjEfwH5B-20">
          <mxGeometry width="100" relative="1" as="geometry">
            <mxPoint x="900" y="400" as="sourcePoint" />
            <mxPoint x="1000" y="400" as="targetPoint" />
          </mxGeometry>
        </mxCell>
        <mxCell id="PeHTUBSz9kUBFjEfwH5B-26" value="" style="shape=link;html=1;rounded=0;entryX=0;entryY=1;entryDx=0;entryDy=0;exitX=1;exitY=0;exitDx=0;exitDy=0;" edge="1" parent="1" source="PeHTUBSz9kUBFjEfwH5B-20" target="PeHTUBSz9kUBFjEfwH5B-20">
          <mxGeometry width="100" relative="1" as="geometry">
            <mxPoint x="900" y="400" as="sourcePoint" />
            <mxPoint x="1000" y="400" as="targetPoint" />
          </mxGeometry>
        </mxCell>
        <mxCell id="PeHTUBSz9kUBFjEfwH5B-27" value="" style="shape=link;html=1;rounded=0;exitX=0;exitY=0;exitDx=0;exitDy=0;entryX=1;entryY=1;entryDx=0;entryDy=0;" edge="1" parent="1" source="PeHTUBSz9kUBFjEfwH5B-21" target="PeHTUBSz9kUBFjEfwH5B-21">
          <mxGeometry width="100" relative="1" as="geometry">
            <mxPoint x="900" y="400" as="sourcePoint" />
            <mxPoint x="1000" y="400" as="targetPoint" />
          </mxGeometry>
        </mxCell>
        <mxCell id="PeHTUBSz9kUBFjEfwH5B-28" value="" style="shape=link;html=1;rounded=0;entryX=1;entryY=0;entryDx=0;entryDy=0;exitX=0;exitY=1;exitDx=0;exitDy=0;" edge="1" parent="1" source="PeHTUBSz9kUBFjEfwH5B-21" target="PeHTUBSz9kUBFjEfwH5B-21">
          <mxGeometry width="100" relative="1" as="geometry">
            <mxPoint x="900" y="430" as="sourcePoint" />
            <mxPoint x="1000" y="440" as="targetPoint" />
          </mxGeometry>
        </mxCell>
      </root>
    </mxGraphModel>
  </diagram>
</mxfile>
